<svg width="150" height="29" viewBox="0 0 150 29" fill="none" xmlns="http://www.w3.org/2000/svg">
<path d="M106.057 25.7464C104.342 24.02 103.484 21.9152 103.484 19.4385C103.484 16.9584 104.342 14.8502 106.057 13.1039C107.772 11.3609 109.842 10.4878 112.265 10.4878C114.545 10.4878 116.511 11.2547 118.158 12.7919C118.304 12.9413 118.31 13.0907 118.184 13.2367L117.794 13.6584C117.664 13.7912 117.527 13.7812 117.381 13.6318C115.893 12.2773 114.188 11.6 112.265 11.6C110.147 11.6 108.357 12.3669 106.892 13.904C105.427 15.4412 104.696 17.2838 104.696 19.4318C104.696 21.5798 105.427 23.4158 106.892 24.933C108.354 26.4536 110.147 27.2138 112.265 27.2138C114.042 27.2138 115.75 26.52 117.381 25.1322C117.544 24.9994 117.674 24.9828 117.768 25.0824L118.18 25.504C118.326 25.6368 118.326 25.7763 118.18 25.9257C116.563 27.5292 114.591 28.3293 112.262 28.3293C109.842 28.336 107.772 27.4728 106.057 25.7464Z" fill="#37B772"/>
<path d="M129.873 19.2127V19.2625C130.78 19.5281 131.517 20.0062 132.092 20.7001C132.667 21.3939 132.953 22.287 132.953 23.376C132.953 24.7637 132.456 25.8958 131.462 26.7723C130.468 27.6488 129.185 28.087 127.619 28.087H122.233C122.022 28.087 121.918 27.9808 121.918 27.765V11.0589C121.918 10.8431 122.022 10.7368 122.233 10.7368H127.398C128.902 10.7368 130.114 11.1452 131.036 11.9652C131.959 12.7819 132.417 13.8709 132.417 15.2254C132.417 16.1683 132.186 16.985 131.725 17.6789C131.267 18.3728 130.65 18.884 129.873 19.2127ZM123.032 18.7678H127.567C128.681 18.7678 129.565 18.4458 130.211 17.8017C130.858 17.1576 131.182 16.3144 131.182 15.2719C131.182 14.1995 130.845 13.3563 130.162 12.7421C129.484 12.1312 128.561 11.8258 127.398 11.8258H123.032V18.7678ZM123.032 27.0478H127.713C128.892 27.0478 129.854 26.7125 130.598 26.0452C131.342 25.3746 131.712 24.4782 131.712 23.356C131.712 22.2638 131.345 21.4072 130.608 20.7797C129.87 20.1523 128.915 19.8369 127.733 19.8369H123.029V27.0478H123.032Z" fill="#37B772"/>
<path d="M135.379 27.765V11.0589C135.379 10.9759 135.408 10.9028 135.463 10.8364C135.519 10.77 135.59 10.7368 135.668 10.7368H140.81C143.156 10.7368 145.163 11.5834 146.836 13.2766C148.509 14.9698 149.347 17.0083 149.347 19.3854C149.347 21.799 148.516 23.8507 146.849 25.5439C145.183 27.2371 143.172 28.0837 140.81 28.0837H135.668C135.587 28.0837 135.519 28.0505 135.463 27.9841C135.405 27.9243 135.379 27.848 135.379 27.765ZM136.516 27.0213H140.615C142.766 27.0213 144.556 26.2942 145.988 24.8401C147.418 23.3859 148.136 21.5666 148.136 19.3854C148.136 17.2373 147.424 15.4346 146.001 13.9804C144.578 12.5263 142.782 11.7992 140.615 11.7992H136.516V27.0213V27.0213Z" fill="#37B772"/>
<path d="M0.890625 27.6156V11.2083C0.890625 11.0755 0.936103 10.9659 1.02381 10.8729C1.11152 10.7833 1.21222 10.7368 1.32592 10.7368H7.24457C9.58995 10.7368 11.5942 11.5834 13.2607 13.2766C14.9271 14.9698 15.7587 17.0082 15.7587 19.3853C15.7587 21.7824 14.9271 23.8308 13.2607 25.5339C11.5942 27.2371 9.58995 28.087 7.24457 28.087H1.32592C1.21222 28.087 1.11152 28.0405 1.02381 27.9509C0.932855 27.8612 0.890625 27.7484 0.890625 27.6156ZM4.67181 24.4184H7.21859C8.56019 24.4184 9.64842 23.9404 10.48 22.9809C11.3116 22.0214 11.7307 20.8229 11.7307 19.3853C11.7307 17.9644 11.3149 16.7758 10.48 15.8164C9.64842 14.8569 8.56019 14.3788 7.21859 14.3788H4.67181V24.4184V24.4184Z" fill="#37B772"/>
<path d="M18.6445 27.6156V11.2083C18.6445 11.0755 18.69 10.9659 18.7777 10.8729C18.8654 10.7833 18.9759 10.7368 19.1058 10.7368H26.3563C27.8766 10.7368 29.137 11.2581 30.1408 12.2972C31.1445 13.3397 31.6448 14.6013 31.6448 16.0886C31.6448 17.2274 31.3297 18.2366 30.6995 19.1131C30.0693 19.9896 29.189 20.6403 28.0553 21.0719L31.3784 27.3666C31.4759 27.5326 31.4791 27.6919 31.3914 27.8513C31.3037 28.0073 31.1608 28.087 30.9659 28.087H27.7402C27.5453 28.087 27.4153 28.014 27.3536 27.8646L24.1279 21.2977H22.455V27.6189C22.455 27.7351 22.4062 27.8413 22.3088 27.9409C22.2113 28.0405 22.1074 28.0903 21.9937 28.0903H19.1091C18.9791 28.0903 18.8719 28.0439 18.781 27.9542C18.69 27.8613 18.6445 27.7484 18.6445 27.6156ZM22.4517 18.147H26.0412C26.5415 18.147 26.9735 17.9611 27.3374 17.5893C27.7012 17.2174 27.8831 16.7427 27.8831 16.165C27.8831 15.6039 27.7044 15.1491 27.3504 14.8005C26.993 14.4519 26.5577 14.2792 26.0412 14.2792H22.4517V18.147Z" fill="#37B772"/>
<path d="M33.1962 28.087C33.0175 28.087 32.8843 28.0206 32.7966 27.8878C32.7089 27.755 32.7024 27.6056 32.7836 27.4429L40.3752 10.76C40.4564 10.5774 40.5929 10.4878 40.7878 10.4878H41.0314C41.2263 10.4878 41.3628 10.5774 41.444 10.76L49.0356 27.4429C49.1168 27.6089 49.1136 27.7583 49.0226 27.8878C48.9349 28.0206 48.8017 28.087 48.623 28.087H45.9301C45.5565 28.087 45.2739 27.8811 45.0822 27.4661L44.2084 25.5074H37.6108L36.737 27.4894C36.5746 27.8845 36.2854 28.0837 35.8631 28.0837H33.1962V28.087ZM39.0629 22.1376H42.7499L40.908 18.0474H40.8852L39.0629 22.1376Z" fill="#37B772"/>
<path d="M52.0533 25.7329C50.3641 24.0132 49.5195 21.915 49.5195 19.4383C49.5195 16.9582 50.3674 14.8534 52.0663 13.117C53.7652 11.3807 55.8183 10.5142 58.2254 10.5142C59.2454 10.5142 60.2784 10.72 61.3309 11.135C62.3834 11.5467 63.3189 12.1177 64.144 12.8448C64.4039 13.0606 64.4201 13.283 64.1927 13.5154L62.2762 15.597C62.065 15.7796 61.8474 15.7863 61.62 15.6203C60.7786 14.8268 59.7196 14.4317 58.443 14.4317C57.1339 14.4317 56.0099 14.9231 55.0711 15.9058C54.1323 16.8885 53.6645 18.0671 53.6645 19.4383C53.6645 20.7928 54.1323 21.9548 55.0711 22.9209C56.0099 23.887 57.1404 24.3717 58.4657 24.3717C59.2584 24.3717 59.9763 24.2389 60.626 23.9767V22.5391H59.0992C58.9692 22.5391 58.8588 22.4993 58.7711 22.4163C58.6834 22.3333 58.6379 22.227 58.6379 22.0942V19.6408C58.6379 19.3287 58.7906 19.1693 59.0992 19.1693H63.9751C64.0888 19.1693 64.1895 19.2158 64.2772 19.3055C64.3649 19.3951 64.4104 19.508 64.4104 19.6408L64.4331 26.3073C64.4331 26.4733 64.3682 26.6061 64.2382 26.7057C64.0433 26.8219 63.7769 26.9713 63.4391 27.1506C63.098 27.3332 62.4028 27.5722 61.3536 27.8677C60.3011 28.1665 59.2584 28.3126 58.2254 28.3126C55.7988 28.3126 53.7425 27.4527 52.0533 25.7329Z" fill="#37B772"/>
<path d="M87.0149 27.6156L86.9922 10.9327C86.9922 10.8165 87.0377 10.7136 87.1254 10.6239C87.2131 10.5343 87.3235 10.4878 87.4535 10.4878H87.8173C87.9797 10.4878 88.1811 10.6106 88.4248 10.8596L97.738 20.0062H97.7608V11.2082C97.7608 11.0754 97.8063 10.9659 97.894 10.8729C97.9817 10.7833 98.0921 10.7368 98.222 10.7368H101.133C101.246 10.7368 101.35 10.7866 101.448 10.8862C101.545 10.9858 101.594 11.092 101.594 11.2082V27.8911C101.594 28.1899 101.441 28.336 101.133 28.336H100.889C100.662 28.336 100.46 28.2463 100.282 28.0637L90.8481 18.3727H90.8253V27.6189C90.8253 27.7517 90.7799 27.8645 90.6922 27.9542C90.6045 28.0438 90.494 28.0903 90.3641 28.0903H87.4795C87.3495 28.0903 87.2423 28.0405 87.1514 27.9409C87.0604 27.8413 87.0149 27.7318 87.0149 27.6156Z" fill="#37B772"/>
<path d="M78.3509 18.3663C78.4288 18.7049 78.7277 20.75 74.953 21.59C74.953 21.59 71.867 22.7719 73.0949 24.7639C73.0949 24.7639 72.1821 24.641 71.8572 23.738C71.8572 23.738 70.769 23.3097 70.5059 22.4565C70.5059 22.4565 70.782 22.8383 72.455 22.5528L71.6266 22.5494C71.6851 22.5461 72.0976 22.4631 73.1274 20.7633C73.1274 20.7633 74.1896 20.1325 74.4852 19.4585C74.4852 19.4585 73.7413 20.2288 72.9357 20.1159C72.9357 20.1159 71.1426 20.5409 70.5026 20.8463C70.5026 20.8463 71.0614 19.93 71.4707 19.6345C71.0776 19.8769 69.6548 20.8164 69.8595 21.59C69.8595 21.59 69.6646 21.8589 69.671 22.4498C69.671 22.4498 68.9044 21.5767 69.2585 20.4379L68.9239 21.0388C68.9239 21.0388 68.6933 20.5508 68.6738 20.3317C68.6283 19.8105 69.2293 19.2992 69.2293 19.2992C69.3235 19.2195 69.5898 19.5847 69.7068 19.5382C71.0029 19.0037 71.4414 18.6651 72.1399 17.9313C72.835 17.7487 74.2286 17.3238 75.0212 16.6664C75.0212 16.6664 74.6736 16.0755 73.8583 16.3444C73.8583 16.3444 73.5919 17.3968 72.3153 17.7454C72.3575 17.699 72.3997 17.6525 72.4452 17.606C72.7473 17.2806 72.7343 16.4639 72.8838 16.2979C74.2156 14.7973 75.1642 15.2289 76.9053 13.5855C76.9053 13.5855 76.8566 13.8146 76.7202 14.0935C76.5772 14.3823 76.2361 14.6579 76.2361 14.6579C76.2361 14.6579 79.2409 13.2004 80.6183 12.1347C80.7157 12.0583 80.8099 11.9853 80.9041 11.9089C79.4196 10.8598 77.62 10.2456 75.6774 10.2456C70.5904 10.2456 66.4648 14.462 66.4648 19.6611C66.4648 23.0674 68.2352 26.052 70.886 27.7054C71.5649 26.9517 72.4127 26.1715 73.4652 25.4212C74.4625 24.7107 76.1582 23.645 76.3791 21.4372C76.3726 21.4372 78.9713 20.6803 78.3509 18.3663ZM82.2555 13.0809C82.7233 12.3272 83.1391 11.401 83.2365 10.3917C81.7942 13.0676 78.3606 14.9932 78.3606 14.9932C78.9746 15.2123 79.9264 15.7833 81.0633 17.2508C81.8462 18.2633 83.3405 17.7421 83.3405 17.7421C81.9339 19.0269 80.9009 18.3131 81.3849 18.5522C81.7357 18.7248 82.2587 21.0322 83.4022 21.9286C83.4022 21.9286 83.0189 22.2174 82.0151 21.6763C82.0151 21.6763 81.9956 23.7745 82.9799 25.1888C82.9799 25.1888 82.2068 25.1556 81.5798 24.3688C81.5798 24.3688 81.2647 26.55 80.3811 27.7552C83.0773 26.1118 84.8835 23.1039 84.8835 19.6644C84.8835 17.1014 83.883 14.7774 82.2555 13.0809Z" fill="#37B772"/>
<path d="M2.32463 7.55742V1.96326H0.833599C0.781624 1.96326 0.736145 1.94666 0.700413 1.90682C0.66468 1.87362 0.648438 1.82714 0.648438 1.77402V0.957305C0.648438 0.904185 0.66468 0.861026 0.703661 0.821186C0.736145 0.787986 0.781624 0.768066 0.833599 0.768066H5.09555C5.14753 0.768066 5.18976 0.787986 5.22874 0.824506C5.26447 0.861026 5.28396 0.907506 5.28396 0.960625V1.77734C5.28396 1.83046 5.26447 1.87694 5.22874 1.91346C5.19301 1.94998 5.14753 1.9699 5.09555 1.9699H3.60452V7.56406C3.60452 7.61054 3.58503 7.6537 3.54929 7.69354C3.51356 7.73338 3.46808 7.7533 3.41611 7.7533H2.50979C2.46432 7.7533 2.42209 7.73338 2.3831 7.69354C2.34412 7.6537 2.32463 7.6039 2.32463 7.55742Z" fill="#434343"/>
<path d="M7.84766 7.55293V0.952813C7.84766 0.906333 7.86715 0.863173 7.90288 0.823333C7.93861 0.783494 7.98084 0.763574 8.03607 0.763574H8.94238C8.99436 0.763574 9.03984 0.783494 9.07557 0.820014C9.1113 0.856533 9.13079 0.903013 9.13079 0.956133V3.59883H12.311V0.952813C12.311 0.899693 12.3273 0.856533 12.3662 0.816694C12.402 0.780174 12.4475 0.760254 12.4994 0.760254H13.396C13.4415 0.760254 13.4837 0.780174 13.5227 0.820014C13.5617 0.859853 13.5812 0.903013 13.5812 0.949493V7.54961C13.5812 7.59609 13.5617 7.63925 13.5227 7.67909C13.4837 7.71892 13.4415 7.73884 13.396 7.73884H12.4994C12.4475 7.73884 12.402 7.72224 12.3662 7.6824C12.3305 7.64588 12.311 7.59941 12.311 7.54629V4.79403H9.13079V7.54629C9.13079 7.59941 9.1113 7.64588 9.07557 7.6824C9.03984 7.71892 8.99436 7.73884 8.94238 7.73884H8.03607C7.98409 7.73884 7.93861 7.71892 7.90288 7.67909C7.86715 7.64257 7.84766 7.59941 7.84766 7.55293Z" fill="#434343"/>
<path d="M16.7148 7.55292V0.952812C16.7148 0.899693 16.7343 0.856533 16.7701 0.816694C16.8058 0.780174 16.848 0.760254 16.9033 0.760254H20.8729C20.9248 0.760254 20.9703 0.780174 21.006 0.816694C21.0418 0.853213 21.0613 0.899693 21.0613 0.952812V1.76953C21.0613 1.82265 21.0418 1.86913 21.006 1.90565C20.9703 1.94217 20.9248 1.96209 20.8729 1.96209H17.985V3.59551H20.3953C20.4473 3.59551 20.4895 3.61543 20.5285 3.65527C20.5642 3.69511 20.5837 3.73827 20.5837 3.78475V4.61143C20.5837 4.66455 20.5642 4.71103 20.5285 4.74755C20.4928 4.78406 20.4473 4.80398 20.3953 4.80398H17.985V6.54697H20.8729C20.9248 6.54697 20.9703 6.56689 21.006 6.60341C21.0418 6.63993 21.0613 6.68641 21.0613 6.73953V7.55625C21.0613 7.60936 21.0418 7.65584 21.006 7.69236C20.9703 7.72888 20.9248 7.7488 20.8729 7.7488H16.9C16.848 7.7488 16.8026 7.7322 16.7668 7.69236C16.7311 7.65252 16.7148 7.60604 16.7148 7.55292Z" fill="#434343"/>
<path d="M28.2622 6.79606C27.5833 6.1055 27.2422 5.26223 27.2422 4.26292C27.2422 3.2636 27.5833 2.41701 28.2654 1.7165C28.9476 1.01598 29.7727 0.664062 30.744 0.664062C31.6211 0.664062 32.4169 0.97282 33.1251 1.59034C33.2226 1.68994 33.2258 1.78289 33.1348 1.86921L32.5306 2.51661C32.4527 2.59629 32.3682 2.59629 32.2773 2.51661C31.8485 2.13149 31.358 1.93893 30.8057 1.93893C30.2015 1.93893 29.685 2.16801 29.2595 2.62285C28.8339 3.07769 28.6195 3.62216 28.6195 4.25296C28.6195 4.87711 28.8339 5.41495 29.2595 5.86315C29.685 6.31134 30.2048 6.5371 30.8155 6.5371C31.1793 6.5371 31.5659 6.4541 31.9752 6.2881V5.44151H31.1955C31.1436 5.44151 31.0981 5.42491 31.0623 5.39171C31.0266 5.35851 31.0071 5.31535 31.0071 5.26223V4.4754C31.0071 4.34924 31.0688 4.28616 31.1923 4.28616H33.0666C33.1121 4.28616 33.1543 4.30608 33.1901 4.3426C33.2258 4.37912 33.2453 4.4256 33.2453 4.47872V7.03178C33.2453 7.09818 33.2193 7.1513 33.1673 7.19114C33.0894 7.23762 32.9822 7.29738 32.8457 7.37042C32.7093 7.44346 32.4299 7.53973 32.0076 7.65925C31.5853 7.77877 31.1663 7.83853 30.7505 7.83853C29.7662 7.83189 28.9411 7.48661 28.2622 6.79606Z" fill="#434343"/>
<path d="M36.125 7.55293V0.952813C36.125 0.899693 36.1445 0.856533 36.1802 0.816694C36.216 0.780174 36.2582 0.760254 36.3134 0.760254H39.1038C39.6885 0.760254 40.1888 0.969413 40.6046 1.38773C41.0204 1.80605 41.2283 2.31068 41.2283 2.90164C41.2283 3.35316 41.0951 3.75819 40.832 4.11343C40.5689 4.46867 40.218 4.73759 39.7827 4.91687L41.1178 7.45001C41.1568 7.51641 41.1601 7.58281 41.1243 7.64589C41.0886 7.70897 41.0301 7.74217 40.9522 7.74217H39.9289C39.8575 7.74217 39.8055 7.71229 39.773 7.65253L38.4769 5.00983H37.3951V7.55293C37.3951 7.59941 37.3756 7.64257 37.3399 7.68241C37.3042 7.72225 37.2587 7.74217 37.2067 7.74217H36.3102C36.2582 7.74217 36.2127 7.72557 36.177 7.68573C36.1445 7.65253 36.125 7.60605 36.125 7.55293ZM37.4049 3.94411H38.9934C39.2532 3.94411 39.4806 3.84451 39.6723 3.64532C39.864 3.44612 39.9614 3.20708 39.9614 2.9282C39.9614 2.6626 39.864 2.43352 39.6723 2.24428C39.4806 2.05505 39.2532 1.95877 38.9934 1.95877H37.4049V3.94411Z" fill="#434343"/>
<path d="M44.0469 7.55292V0.952812C44.0469 0.899693 44.0664 0.856533 44.1021 0.816694C44.1378 0.780174 44.1801 0.760254 44.2353 0.760254H48.2049C48.2568 0.760254 48.3023 0.780174 48.3381 0.816694C48.3738 0.853213 48.3933 0.899693 48.3933 0.952812V1.76953C48.3933 1.82265 48.3738 1.86913 48.3381 1.90565C48.3023 1.94217 48.2568 1.96209 48.2049 1.96209H45.317V3.59551H47.7273C47.7793 3.59551 47.8216 3.61543 47.8605 3.65527C47.8963 3.69511 47.9158 3.73827 47.9158 3.78475V4.61143C47.9158 4.66455 47.8963 4.71103 47.8605 4.74755C47.8248 4.78406 47.7793 4.80398 47.7273 4.80398H45.317V6.54697H48.2049C48.2568 6.54697 48.3023 6.56689 48.3381 6.60341C48.3738 6.63993 48.3933 6.68641 48.3933 6.73953V7.55625C48.3933 7.60936 48.3738 7.65584 48.3381 7.69236C48.3023 7.72888 48.2568 7.7488 48.2049 7.7488H44.2353C44.1833 7.7488 44.1378 7.7322 44.1021 7.69236C44.0631 7.65252 44.0469 7.60604 44.0469 7.55292Z" fill="#434343"/>
<path d="M51.1484 7.55292V0.952812C51.1484 0.899693 51.1679 0.856533 51.2037 0.816694C51.2394 0.780174 51.2816 0.760254 51.3368 0.760254H55.3064C55.3584 0.760254 55.4039 0.780174 55.4396 0.816694C55.4754 0.853213 55.4949 0.899693 55.4949 0.952812V1.76953C55.4949 1.82265 55.4754 1.86913 55.4396 1.90565C55.4039 1.94217 55.3584 1.96209 55.3064 1.96209H52.4186V3.59551H54.8289C54.8809 3.59551 54.9231 3.61543 54.9621 3.65527C54.9978 3.69511 55.0173 3.73827 55.0173 3.78475V4.61143C55.0173 4.66455 54.9978 4.71103 54.9621 4.74755C54.9264 4.78406 54.8809 4.80398 54.8289 4.80398H52.4186V6.54697H55.3064C55.3584 6.54697 55.4039 6.56689 55.4396 6.60341C55.4754 6.63993 55.4949 6.68641 55.4949 6.73953V7.55625C55.4949 7.60936 55.4754 7.65584 55.4396 7.69236C55.4039 7.72888 55.3584 7.7488 55.3064 7.7488H51.3368C51.2849 7.7488 51.2394 7.7322 51.2037 7.69236C51.1647 7.65252 51.1484 7.60604 51.1484 7.55292Z" fill="#434343"/>
<path d="M58.25 7.55292V0.843243C58.25 0.796764 58.2695 0.756924 58.3052 0.717084C58.341 0.680564 58.3832 0.660645 58.4384 0.660645H58.5846C58.6496 0.660645 58.7048 0.683884 58.7503 0.730364L62.7296 5.06626H62.7491V0.952803C62.7491 0.899683 62.7653 0.856523 62.8043 0.816683C62.8401 0.780164 62.8855 0.760244 62.9375 0.760244H63.8341C63.8796 0.760244 63.9218 0.780164 63.9608 0.820003C63.9998 0.859843 64.0193 0.903003 64.0193 0.949483V7.65916C64.0193 7.70564 63.9998 7.7488 63.964 7.78532C63.9283 7.82184 63.8828 7.84176 63.8308 7.84176H63.6944C63.6294 7.84176 63.5742 7.81852 63.5287 7.77204L59.5266 3.26683H59.5072V7.55292C59.5072 7.60604 59.4877 7.65252 59.4519 7.68904C59.4162 7.72556 59.3707 7.74548 59.3187 7.74548H58.4319C58.3799 7.74548 58.3345 7.72556 58.2987 7.68572C58.2662 7.64256 58.25 7.5994 58.25 7.55292Z" fill="#434343"/>
</svg>
